<svg width="1171" height="106" viewBox="0 0 1171 106" fill="none" xmlns="http://www.w3.org/2000/svg">
<g filter="url(#filter0_d_97_164)">
<rect x="4" width="1163" height="98" rx="9" fill="white" shape-rendering="crispEdges"/>
<path d="M46.96 38.04V52H44.16V46.06H38.18V52H35.38V38.04H38.18V43.78H44.16V38.04H46.96ZM54.6359 52.18C53.5693 52.18 52.6093 51.9467 51.7559 51.48C50.9026 51 50.2293 50.3267 49.7359 49.46C49.2559 48.5933 49.0159 47.5933 49.0159 46.46C49.0159 45.3267 49.2626 44.3267 49.7559 43.46C50.2626 42.5933 50.9493 41.9267 51.8159 41.46C52.6826 40.98 53.6493 40.74 54.7159 40.74C55.7826 40.74 56.7493 40.98 57.6159 41.46C58.4826 41.9267 59.1626 42.5933 59.6559 43.46C60.1626 44.3267 60.4159 45.3267 60.4159 46.46C60.4159 47.5933 60.1559 48.5933 59.6359 49.46C59.1293 50.3267 58.4359 51 57.5559 51.48C56.6893 51.9467 55.7159 52.18 54.6359 52.18ZM54.6359 49.74C55.1426 49.74 55.6159 49.62 56.0559 49.38C56.5093 49.1267 56.8693 48.7533 57.1359 48.26C57.4026 47.7667 57.5359 47.1667 57.5359 46.46C57.5359 45.4067 57.2559 44.6 56.6959 44.04C56.1493 43.4667 55.4759 43.18 54.6759 43.18C53.8759 43.18 53.2026 43.4667 52.6559 44.04C52.1226 44.6 51.8559 45.4067 51.8559 46.46C51.8559 47.5133 52.1159 48.3267 52.6359 48.9C53.1693 49.46 53.8359 49.74 54.6359 49.74ZM77.8298 40.92L74.5898 52H71.5698L69.5498 44.26L67.5298 52H64.4898L61.2298 40.92H64.0698L66.0298 49.36L68.1498 40.92H71.1098L73.1898 49.34L75.1498 40.92H77.8298ZM83.3905 46.42C83.3905 45.3 83.6105 44.3067 84.0505 43.44C84.5038 42.5733 85.1171 41.9067 85.8905 41.44C86.6638 40.9733 87.5238 40.74 88.4705 40.74C89.1905 40.74 89.8771 40.9 90.5305 41.22C91.1838 41.5267 91.7038 41.94 92.0905 42.46V37.2H94.9305V52H92.0905V50.36C91.7438 50.9067 91.2571 51.3467 90.6305 51.68C90.0038 52.0133 89.2771 52.18 88.4505 52.18C87.5171 52.18 86.6638 51.94 85.8905 51.46C85.1171 50.98 84.5038 50.3067 84.0505 49.44C83.6105 48.56 83.3905 47.5533 83.3905 46.42ZM92.1105 46.46C92.1105 45.78 91.9771 45.2 91.7105 44.72C91.4438 44.2267 91.0838 43.8533 90.6305 43.6C90.1771 43.3333 89.6905 43.2 89.1705 43.2C88.6505 43.2 88.1705 43.3267 87.7305 43.58C87.2905 43.8333 86.9305 44.2067 86.6505 44.7C86.3838 45.18 86.2505 45.7533 86.2505 46.42C86.2505 47.0867 86.3838 47.6733 86.6505 48.18C86.9305 48.6733 87.2905 49.0533 87.7305 49.32C88.1838 49.5867 88.6638 49.72 89.1705 49.72C89.6905 49.72 90.1771 49.5933 90.6305 49.34C91.0838 49.0733 91.4438 48.7 91.7105 48.22C91.9771 47.7267 92.1105 47.14 92.1105 46.46ZM102.585 52.18C101.518 52.18 100.558 51.9467 99.7052 51.48C98.8518 51 98.1785 50.3267 97.6852 49.46C97.2052 48.5933 96.9652 47.5933 96.9652 46.46C96.9652 45.3267 97.2118 44.3267 97.7052 43.46C98.2118 42.5933 98.8985 41.9267 99.7652 41.46C100.632 40.98 101.598 40.74 102.665 40.74C103.732 40.74 104.698 40.98 105.565 41.46C106.432 41.9267 107.112 42.5933 107.605 43.46C108.112 44.3267 108.365 45.3267 108.365 46.46C108.365 47.5933 108.105 48.5933 107.585 49.46C107.078 50.3267 106.385 51 105.505 51.48C104.638 51.9467 103.665 52.18 102.585 52.18ZM102.585 49.74C103.092 49.74 103.565 49.62 104.005 49.38C104.458 49.1267 104.818 48.7533 105.085 48.26C105.352 47.7667 105.485 47.1667 105.485 46.46C105.485 45.4067 105.205 44.6 104.645 44.04C104.098 43.4667 103.425 43.18 102.625 43.18C101.825 43.18 101.152 43.4667 100.605 44.04C100.072 44.6 99.8052 45.4067 99.8052 46.46C99.8052 47.5133 100.065 48.3267 100.585 48.9C101.118 49.46 101.785 49.74 102.585 49.74ZM116.605 39.6C116.111 39.6 115.698 39.4467 115.365 39.14C115.045 38.82 114.885 38.4267 114.885 37.96C114.885 37.4933 115.045 37.1067 115.365 36.8C115.698 36.48 116.111 36.32 116.605 36.32C117.098 36.32 117.505 36.48 117.825 36.8C118.158 37.1067 118.325 37.4933 118.325 37.96C118.325 38.4267 118.158 38.82 117.825 39.14C117.505 39.4467 117.098 39.6 116.605 39.6ZM117.985 40.92V52H115.185V40.92H117.985ZM129.757 52.18C128.85 52.18 128.037 52.02 127.317 51.7C126.597 51.3667 126.023 50.92 125.597 50.36C125.183 49.8 124.957 49.18 124.917 48.5H127.737C127.79 48.9267 127.997 49.28 128.357 49.56C128.73 49.84 129.19 49.98 129.737 49.98C130.27 49.98 130.683 49.8733 130.977 49.66C131.283 49.4467 131.437 49.1733 131.437 48.84C131.437 48.48 131.25 48.2133 130.877 48.04C130.517 47.8533 129.937 47.6533 129.137 47.44C128.31 47.24 127.63 47.0333 127.097 46.82C126.577 46.6067 126.123 46.28 125.737 45.84C125.363 45.4 125.177 44.8067 125.177 44.06C125.177 43.4467 125.35 42.8867 125.697 42.38C126.057 41.8733 126.563 41.4733 127.217 41.18C127.883 40.8867 128.663 40.74 129.557 40.74C130.877 40.74 131.93 41.0733 132.717 41.74C133.503 42.3933 133.937 43.28 134.017 44.4H131.337C131.297 43.96 131.11 43.6133 130.777 43.36C130.457 43.0933 130.023 42.96 129.477 42.96C128.97 42.96 128.577 43.0533 128.297 43.24C128.03 43.4267 127.897 43.6867 127.897 44.02C127.897 44.3933 128.083 44.68 128.457 44.88C128.83 45.0667 129.41 45.26 130.197 45.46C130.997 45.66 131.657 45.8667 132.177 46.08C132.697 46.2933 133.143 46.6267 133.517 47.08C133.903 47.52 134.103 48.1067 134.117 48.84C134.117 49.48 133.937 50.0533 133.577 50.56C133.23 51.0667 132.723 51.4667 132.057 51.76C131.403 52.04 130.637 52.18 129.757 52.18ZM137.835 39.6C137.342 39.6 136.928 39.4467 136.595 39.14C136.275 38.82 136.115 38.4267 136.115 37.96C136.115 37.4933 136.275 37.1067 136.595 36.8C136.928 36.48 137.342 36.32 137.835 36.32C138.328 36.32 138.735 36.48 139.055 36.8C139.388 37.1067 139.555 37.4933 139.555 37.96C139.555 38.4267 139.388 38.82 139.055 39.14C138.735 39.4467 138.328 39.6 137.835 39.6ZM139.215 40.92V52H136.415V40.92H139.215ZM146.322 40.74C147.148 40.74 147.875 40.9067 148.502 41.24C149.128 41.56 149.622 41.98 149.982 42.5V40.92H152.802V52.08C152.802 53.1067 152.595 54.02 152.182 54.82C151.768 55.6333 151.148 56.2733 150.322 56.74C149.495 57.22 148.495 57.46 147.322 57.46C145.748 57.46 144.455 57.0933 143.442 56.36C142.442 55.6267 141.875 54.6267 141.742 53.36H144.522C144.668 53.8667 144.982 54.2667 145.462 54.56C145.955 54.8667 146.548 55.02 147.242 55.02C148.055 55.02 148.715 54.7733 149.222 54.28C149.728 53.8 149.982 53.0667 149.982 52.08V50.36C149.622 50.88 149.122 51.3133 148.482 51.66C147.855 52.0067 147.135 52.18 146.322 52.18C145.388 52.18 144.535 51.94 143.762 51.46C142.988 50.98 142.375 50.3067 141.922 49.44C141.482 48.56 141.262 47.5533 141.262 46.42C141.262 45.3 141.482 44.3067 141.922 43.44C142.375 42.5733 142.982 41.9067 143.742 41.44C144.515 40.9733 145.375 40.74 146.322 40.74ZM149.982 46.46C149.982 45.78 149.848 45.2 149.582 44.72C149.315 44.2267 148.955 43.8533 148.502 43.6C148.048 43.3333 147.562 43.2 147.042 43.2C146.522 43.2 146.042 43.3267 145.602 43.58C145.162 43.8333 144.802 44.2067 144.522 44.7C144.255 45.18 144.122 45.7533 144.122 46.42C144.122 47.0867 144.255 47.6733 144.522 48.18C144.802 48.6733 145.162 49.0533 145.602 49.32C146.055 49.5867 146.535 49.72 147.042 49.72C147.562 49.72 148.048 49.5933 148.502 49.34C148.955 49.0733 149.315 48.7 149.582 48.22C149.848 47.7267 149.982 47.14 149.982 46.46ZM161.676 40.76C162.996 40.76 164.063 41.18 164.876 42.02C165.69 42.8467 166.096 44.0067 166.096 45.5V52H163.296V45.88C163.296 45 163.076 44.3267 162.636 43.86C162.196 43.38 161.596 43.14 160.836 43.14C160.063 43.14 159.45 43.38 158.996 43.86C158.556 44.3267 158.336 45 158.336 45.88V52H155.536V40.92H158.336V42.3C158.71 41.82 159.183 41.4467 159.756 41.18C160.343 40.9 160.983 40.76 161.676 40.76ZM183.985 40.92V52H181.165V50.6C180.805 51.08 180.331 51.46 179.745 51.74C179.171 52.0067 178.545 52.14 177.865 52.14C176.998 52.14 176.231 51.96 175.565 51.6C174.898 51.2267 174.371 50.6867 173.985 49.98C173.611 49.26 173.425 48.4067 173.425 47.42V40.92H176.225V47.02C176.225 47.9 176.445 48.58 176.885 49.06C177.325 49.5267 177.925 49.76 178.685 49.76C179.458 49.76 180.065 49.5267 180.505 49.06C180.945 48.58 181.165 47.9 181.165 47.02V40.92H183.985ZM189.547 42.52C189.907 42.0133 190.401 41.5933 191.027 41.26C191.667 40.9133 192.394 40.74 193.207 40.74C194.154 40.74 195.007 40.9733 195.767 41.44C196.541 41.9067 197.147 42.5733 197.587 43.44C198.041 44.2933 198.267 45.2867 198.267 46.42C198.267 47.5533 198.041 48.56 197.587 49.44C197.147 50.3067 196.541 50.98 195.767 51.46C195.007 51.94 194.154 52.18 193.207 52.18C192.394 52.18 191.674 52.0133 191.047 51.68C190.434 51.3467 189.934 50.9267 189.547 50.42V57.28H186.747V40.92H189.547V42.52ZM195.407 46.42C195.407 45.7533 195.267 45.18 194.987 44.7C194.721 44.2067 194.361 43.8333 193.907 43.58C193.467 43.3267 192.987 43.2 192.467 43.2C191.961 43.2 191.481 43.3333 191.027 43.6C190.587 43.8533 190.227 44.2267 189.947 44.72C189.681 45.2133 189.547 45.7933 189.547 46.46C189.547 47.1267 189.681 47.7067 189.947 48.2C190.227 48.6933 190.587 49.0733 191.027 49.34C191.481 49.5933 191.961 49.72 192.467 49.72C192.987 49.72 193.467 49.5867 193.907 49.32C194.361 49.0533 194.721 48.6733 194.987 48.18C195.267 47.6867 195.407 47.1 195.407 46.42ZM204.202 37.56C205.589 37.56 206.702 37.94 207.542 38.7C208.395 39.4467 208.822 40.48 208.822 41.8C208.822 43.1067 208.402 44.1067 207.562 44.8C206.722 45.48 205.609 45.82 204.222 45.82L204.142 47.36H201.682L201.582 43.96H202.482C203.642 43.96 204.535 43.8067 205.162 43.5C205.789 43.1933 206.102 42.6333 206.102 41.82C206.102 41.2333 205.929 40.7667 205.582 40.42C205.249 40.0733 204.789 39.9 204.202 39.9C203.589 39.9 203.109 40.0667 202.762 40.4C202.429 40.7333 202.262 41.1933 202.262 41.78H199.622C199.609 40.9667 199.782 40.24 200.142 39.6C200.502 38.96 201.029 38.46 201.722 38.1C202.429 37.74 203.255 37.56 204.202 37.56ZM202.902 52.14C202.395 52.14 201.975 51.9867 201.642 51.68C201.322 51.36 201.162 50.9667 201.162 50.5C201.162 50.0333 201.322 49.6467 201.642 49.34C201.975 49.02 202.395 48.86 202.902 48.86C203.395 48.86 203.802 49.02 204.122 49.34C204.442 49.6467 204.602 50.0333 204.602 50.5C204.602 50.9667 204.442 51.36 204.122 51.68C203.802 51.9867 203.395 52.14 202.902 52.14Z" fill="black"/>
<path d="M1124.09 50.8819L1113.68 41.7721C1113.18 41.3327 1113.18 40.6204 1113.68 40.1811L1114.89 39.1186C1115.4 38.68 1116.21 38.6791 1116.71 39.1167L1125 46.3364L1133.29 39.1167C1133.79 38.6791 1134.6 38.68 1135.11 39.1186L1136.32 40.1811C1136.82 40.6204 1136.82 41.3328 1136.32 41.7721L1125.91 50.8819C1125.41 51.3213 1124.59 51.3213 1124.09 50.8819Z" fill="black"/>
</g>
<defs>
<filter id="filter0_d_97_164" x="0" y="0" width="1171" height="106" filterUnits="userSpaceOnUse" color-interpolation-filters="sRGB">
<feFlood flood-opacity="0" result="BackgroundImageFix"/>
<feColorMatrix in="SourceAlpha" type="matrix" values="0 0 0 0 0 0 0 0 0 0 0 0 0 0 0 0 0 0 127 0" result="hardAlpha"/>
<feOffset dy="4"/>
<feGaussianBlur stdDeviation="2"/>
<feComposite in2="hardAlpha" operator="out"/>
<feColorMatrix type="matrix" values="0 0 0 0 0 0 0 0 0 0 0 0 0 0 0 0 0 0 0.25 0"/>
<feBlend mode="normal" in2="BackgroundImageFix" result="effect1_dropShadow_97_164"/>
<feBlend mode="normal" in="SourceGraphic" in2="effect1_dropShadow_97_164" result="shape"/>
</filter>
</defs>
</svg>
